<svg class="icon" viewBox="0 0 1024 1024" xmlns="http://www.w3.org/2000/svg" width="128" height="128"><defs><style/></defs><path d="M462.848 233.472c0 4.096 2.048 6.144 2.048 10.24 10.24 10.24 18.432 24.576 20.48 40.96H890.88v423.936H577.536v49.152h362.496V233.472H462.848zM204.8 348.16c22.528 57.344 65.536 112.64 112.64 112.64s86.016-53.248 108.544-112.64c14.336-2.048 28.672-16.384 32.768-36.864 6.144-24.576-2.048-49.152-18.432-55.296-4.096-71.68-59.392-129.024-126.976-129.024S190.464 184.32 186.368 256c-16.384 8.192-22.528 30.72-16.384 55.296 4.096 22.528 20.48 36.864 34.816 36.864"/><path d="M442.368 446.464l-102.4 172.032-12.288-77.824c8.192-4.096 14.336-14.336 14.336-24.576 0-16.384-12.288-28.672-28.672-28.672s-28.672 12.288-28.672 28.672c0 10.24 6.144 20.48 14.336 24.576l-12.288 75.776-102.4-169.984C126.976 471.04 86.016 512 77.824 559.104h-2.048V808.96h2.048c10.24 20.48 112.64 36.864 237.568 36.864 124.928 0 225.28-16.384 237.568-36.864h2.048V559.104h-2.048C540.672 512 499.712 471.04 442.368 446.464m147.456 112.64l-18.432 18.432 40.96 40.96 18.432-18.432c14.336 8.192 28.672 14.336 45.056 18.432v22.528h57.344v-22.528c16.384-4.096 32.768-10.24 47.104-18.432l18.432 18.432 40.96-40.96-16.384-16.384c10.24-14.336 16.384-30.72 20.48-47.104h24.576v-57.344h-24.576c-4.096-18.432-10.24-34.816-20.48-49.152l18.432-18.432-40.96-40.96-18.432 18.432c-14.336-10.24-30.72-16.384-49.152-20.48v-22.528H675.84v22.528c-16.384 4.096-32.768 10.24-45.056 18.432l-20.48-20.48-40.96 40.96 20.48 20.48c-10.24 14.336-16.384 30.72-20.48 47.104H542.72V512h26.624c4.096 18.432 10.24 32.768 20.48 47.104M706.56 382.976c55.296 0 100.352 45.056 100.352 98.304 0 55.296-45.056 98.304-100.352 98.304-55.296 0-100.352-45.056-100.352-98.304 0-53.248 45.056-98.304 100.352-98.304"/><path d="M704.512 557.056c40.96 0 75.776-32.768 75.776-73.728 0-40.96-34.816-73.728-75.776-73.728-40.96 0-75.776 32.768-75.776 73.728 0 40.96 34.816 73.728 75.776 73.728m0-124.928c28.672 0 51.2 22.528 51.2 51.2 0 28.672-22.528 51.2-51.2 51.2-28.672 0-51.2-22.528-51.2-51.2 0-28.672 24.576-51.2 51.2-51.2"/><path d="M704.512 509.952c14.336 0 26.624-12.288 26.624-26.624 0-14.336-12.288-26.624-26.624-26.624-14.336 0-26.624 12.288-26.624 26.624 0 14.336 12.288 26.624 26.624 26.624"/></svg>