<?xml version="1.0" standalone="no"?><!DOCTYPE svg PUBLIC "-//W3C//DTD SVG 1.1//EN" "http://www.w3.org/Graphics/SVG/1.1/DTD/svg11.dtd"><svg t="1589687098357" class="icon" viewBox="0 0 1024 1024" version="1.1" xmlns="http://www.w3.org/2000/svg" p-id="4853" xmlns:xlink="http://www.w3.org/1999/xlink" width="128" height="128"><defs><style type="text/css"></style></defs><path d="M462.848 233.472c0 4.096 2.048 6.144 2.048 10.24 10.24 10.24 18.432 24.576 20.48 40.96l405.504 0 0 423.936L577.536 708.608 577.536 757.76l362.496 0L940.032 233.472 462.848 233.472z" p-id="4854"></path><path d="M204.8 348.16c22.528 57.344 65.536 112.64 112.64 112.64 47.104 0 86.016-53.248 108.544-112.64 14.336-2.048 28.672-16.384 32.768-36.864 6.144-24.576-2.048-49.152-18.432-55.296-4.096-71.68-59.392-129.024-126.976-129.024-67.584 0-122.88 57.344-126.976 129.024C169.984 264.192 163.84 286.72 169.984 311.296 174.08 333.824 190.464 348.16 204.8 348.16" p-id="4855"></path><path d="M442.368 446.464l-102.4 172.032L327.68 540.672c8.192-4.096 14.336-14.336 14.336-24.576 0-16.384-12.288-28.672-28.672-28.672-16.384 0-28.672 12.288-28.672 28.672 0 10.24 6.144 20.48 14.336 24.576l-12.288 75.776-102.4-169.984C126.976 471.04 86.016 512 77.824 559.104L75.776 559.104l0 249.856 2.048 0c10.24 20.48 112.64 36.864 237.568 36.864 124.928 0 225.28-16.384 237.568-36.864l2.048 0L555.008 559.104l-2.048 0C540.672 512 499.712 471.04 442.368 446.464" p-id="4856"></path><path d="M589.824 559.104l-18.432 18.432 40.96 40.96 18.432-18.432c14.336 8.192 28.672 14.336 45.056 18.432l0 22.528 57.344 0 0-22.528c16.384-4.096 32.768-10.24 47.104-18.432l18.432 18.432 40.96-40.96-16.384-16.384c10.24-14.336 16.384-30.72 20.48-47.104l24.576 0 0-57.344-24.576 0c-4.096-18.432-10.24-34.816-20.48-49.152l18.432-18.432-40.96-40.96-18.432 18.432c-14.336-10.24-30.72-16.384-49.152-20.48l0-22.528L675.84 323.584l0 22.528c-16.384 4.096-32.768 10.24-45.056 18.432l-20.48-20.48-40.96 40.96 20.48 20.48c-10.24 14.336-16.384 30.72-20.48 47.104l-26.624 0L542.72 512l26.624 0C573.44 530.432 579.584 544.768 589.824 559.104M706.56 382.976c55.296 0 100.352 45.056 100.352 98.304 0 55.296-45.056 98.304-100.352 98.304-55.296 0-100.352-45.056-100.352-98.304C606.208 428.032 651.264 382.976 706.56 382.976" p-id="4857"></path><path d="M704.512 557.056c40.96 0 75.776-32.768 75.776-73.728 0-40.96-34.816-73.728-75.776-73.728-40.96 0-75.776 32.768-75.776 73.728C628.736 524.288 663.552 557.056 704.512 557.056M704.512 432.128c28.672 0 51.2 22.528 51.2 51.2 0 28.672-22.528 51.2-51.2 51.2-28.672 0-51.2-22.528-51.2-51.2C653.312 454.656 677.888 432.128 704.512 432.128" p-id="4858"></path><path d="M704.512 509.952c14.336 0 26.624-12.288 26.624-26.624 0-14.336-12.288-26.624-26.624-26.624-14.336 0-26.624 12.288-26.624 26.624C677.888 497.664 690.176 509.952 704.512 509.952" p-id="4859"></path></svg>