<svg class="icon" viewBox="0 0 1024 1024" xmlns="http://www.w3.org/2000/svg" width="128" height="128"><defs><style/></defs><path d="M805.695 973.009c-1.963 0-3.541-.054-4.672-.111H203.268c-40.042 0-63.091-16.865-75.375-31.013-26.919-31.003-24.757-73.037-23.543-84.7v-359.53h64v363.913l-.302 1.883c-.761 6.401-.833 26.277 8.289 36.609 1.93 2.186 7.803 8.838 26.932 8.838h600.308l.75.082c2.153.076 22.315.434 34.996-11.557 8.454-7.994 12.74-21.212 12.74-39.288V497.379h64v360.756c0 45.871-18.247 72.371-33.555 86.525-27.534 25.46-62.416 28.348-76.813 28.349zM136.349 527.688H38a32 32 0 01-21.242-55.933l472.219-419.09c12.02-10.668 30.087-10.766 42.223-.227l478.781 415.791a32 32 0 01-20.065 56.148l-104.938 3.012c-.313.01-.624.014-.936.014-17.247 0-31.471-13.729-31.97-31.082-.507-17.666 13.403-32.398 31.069-32.905l22.931-.658-395.624-343.579-388.182 344.509h14.083c17.673 0 32 14.327 32 32s-14.327 32-32 32zM403 941.201c-14.912 0-27-12.088-27-27V688.355c.002-4.866 1.234-24.9 20.021-43.995 22.8-23.173 61.458-34.923 114.901-34.923 52.638 0 90.876 11.911 113.652 35.403 19.225 19.828 20.464 40.706 20.426 46.244v222.25c0 14.912-12.088 27-27 27s-27-12.088-27-27V691.402c-.179-1.167-1.308-6.104-8.017-11.541-7.569-6.134-26.997-16.424-72.062-16.424-52.272 0-70.848 13.145-76.408 18.795-2.73 2.775-3.876 5.136-4.357 6.627a7.885 7.885 0 00-.157.549v224.793c.001 14.912-12.087 27-26.999 27zM410 726l-9 206-238-13-17-254 5-166-71-23L509 87l423 369-43 41-18 370-17 57-224 8-4-149-14-100-28-23-55-9-68 6-42 6z"/></svg>