<svg class="icon" viewBox="0 0 1025 1024" xmlns="http://www.w3.org/2000/svg" width="128.125" height="128"><defs><style/></defs><path d="M1001.657 463.424L669.433 131.008c-20.672-20.608-45.376-26.752-70.912-17.216-26.176 9.856-41.152 33.28-41.216 64.384V328.32h-65.024l-186.624.064c-39.168.128-66.496 27.328-66.624 66.24-.128 78.4-.128 156.736 0 235.072.128 37.696 27.776 65.28 65.792 65.664l252.48.064-.064 29.056c-.128 40.768-.256 81.408.576 122.112.256 15.936 6.528 33.28 16.256 45.184 11.904 14.656 28.224 22.72 45.952 22.72 17.536 0 35.2-8 49.728-22.464 110.848-110.72 221.568-221.504 332.288-332.352 29.568-29.504 29.44-66.432-.384-96.256z"/><path d="M387.705 805.696h-.064l-72.576.128-103.872-.064c-52.48 0-82.624-30.144-82.624-82.688V300.48c0-52.416 30.144-82.496 82.752-82.496l68.8-.064 75.584.064 42.048-.064c30.08 0 46.528-15.104 48.896-44.8.896-11.072.64-22.336.256-34.88-.768-31.296-18.304-48.576-49.216-48.64h-76.352c-40.896 0-81.792 0-122.624.256-12.544.064-25.408 1.472-38.272 4.224C68.217 113.728.889 196.416.377 290.688.121 341.504.185 392.384.249 443.136l.064 67.648-.128 70.976c-.064 51.008-.192 101.952.256 153.024.896 107.776 88.768 197.056 195.904 199.04 26.368.512 52.8.64 79.168.64l125.376-.256c24.768 0 42.112-15.04 45.184-39.232 1.088-8.832 1.216-17.856 1.28-26.88v-4.48c.128-13.312.256-31.552-12.544-44.48-12.352-12.352-30.144-13.44-47.104-13.44z"/></svg>