<svg class="icon" viewBox="0 0 1024 1024" xmlns="http://www.w3.org/2000/svg" width="128" height="128"><defs><style/></defs><path d="M905.849 706.56c22.845 0 41.744 18.76 41.744 41.603 0 23.603-18.899 42.365-41.744 42.365H301.01c-22.833 0-41.728-18.76-41.728-42.365 0-22.843 18.897-41.603 41.728-41.603h604.838zM139.56 215.489c29.927 0 53.557 24.406 53.557 53.544 0 29.928-23.632 53.56-53.557 53.56-29.139 0-53.545-23.632-53.545-53.56 0-29.138 24.406-53.544 53.545-53.544zM301.01 317.44c-22.833 0-41.728-19.139-41.728-41.984s18.897-41.984 41.728-41.984h604.838c22.845 0 41.744 19.139 41.744 41.984s-18.899 41.984-41.744 41.984H301.01zm0 251.904c-22.833 0-41.728-19.14-41.728-41.984s18.897-41.984 41.728-41.984h604.838c22.845 0 41.744 19.14 41.744 41.984s-18.899 41.984-41.744 41.984H301.01zM139.56 458.836c29.927 0 53.557 23.634 53.557 53.557 0 29.141-23.632 53.557-53.557 53.557-29.139 0-53.545-24.416-53.545-53.557 0-29.925 24.406-53.557 53.545-53.557zm0 242.571c29.927 0 53.557 24.42 53.557 53.56 0 29.925-23.632 53.544-53.557 53.544-29.139 0-53.545-23.617-53.545-53.542 0-29.141 24.406-53.562 53.545-53.562z"/></svg>