<svg class="icon" viewBox="0 0 1024 1024" xmlns="http://www.w3.org/2000/svg" width="128" height="128"><defs><style/></defs><path d="M722.22 928.47h190.1a13.77 13.77 0 0013.77-14.23c-2.09-57.48-16.64-109.78-39.79-159.31a.12.12 0 00-.13-.07l-29.78 3a11.59 11.59 0 00-11.16 8.7c-2.67 10.08-5.37 12.72-10 21.84a11.66 11.66 0 002.1 13.48l30.07 31.2a11.62 11.62 0 010 16.38l-38.21 34.37a11.49 11.49 0 01-16.3 0l-32-27.18a11.54 11.54 0 00-14.08-1.73c-9.2 5.43-5.06 4.89-15.39 8.26a11.6 11.6 0 00-8 11l-1 41.66c.46 7.4-15.59 11.37-20.22 12.37a.13.13 0 00.02.26zm-51.01-12.62l-4-38.6c0-5.54-2-9.69-7.09-11.74-10.4-4.18-9.84-4.81-19.41-9.81a12.07 12.07 0 00-14.18 2.14l-31.82 28a12.05 12.05 0 01-17.08 0L544.2 849.2a12.16 12.16 0 010-17.15l24.61-25.72a12.24 12.24 0 002-14.66c-5.39-9.53-4.77-9.67-8-20.36a12.12 12.12 0 00-11.58-8.68l-40.74-3a12.11 12.11 0 01-12.08-12.13v-46.26a12.11 12.11 0 0112.08-12.13l38.19-3a12.13 12.13 0 0011.62-8.85c3-10.44 4.13-14.39 9.21-23.75a12.21 12.21 0 00-2-14.47l-25.63-30.76a12.17 12.17 0 010-17.16l30.44-30.58a12.05 12.05 0 0117.08 0l31.69 24.81a12.07 12.07 0 0014.38 2c8.92-4.86 11.4-5.83 21.3-8.79a12.18 12.18 0 008.73-11.65l3-23.43a.57.57 0 00-.35-.52 410.37 410.37 0 00-119.35-28.88.55.55 0 010-1.09C659.46 493.71 740 386 715.63 264.87c-15.91-79-76.87-141.72-155.25-159.14-134.83-30-254.13 72.3-254.13 202.54 0 102.35 73.67 187.41 170.66 204.62a.55.55 0 01-.06 1.09C270.09 531.52 106.58 701.62 98.34 911.81a16 16 0 0016 16.66H684c.18 0-1.75-.25-1.91-.33-2.46-1.23-10.55-5.82-10.88-12.29z"/><path d="M869 705.15h-38.74a8.61 8.61 0 01-8.4-6.72 118.48 118.48 0 00-16.37-38.65 8.88 8.88 0 011.11-11.15l27.88-28a8.89 8.89 0 000-12.54l-13.83-13.88a8.8 8.8 0 00-12.48 0l-28.37 28.5a8.8 8.8 0 01-10.92 1.29 117.07 117.07 0 00-37.64-15.2 8.84 8.84 0 01-7-8.66V559a8.84 8.84 0 00-8.82-8.86h-19.56A8.84 8.84 0 00687 559v41.55a8.86 8.86 0 01-6.86 8.64 117.26 117.26 0 00-36.76 15.43 8.79 8.79 0 01-11-1.22l-29.56-29.69a8.83 8.83 0 00-12.49 0l-13.75 13.89a8.89 8.89 0 000 12.54L606 649.73a8.86 8.86 0 011.19 11 118.32 118.32 0 00-15.56 36.83 8.82 8.82 0 01-8.58 6.84h-41.53a8.85 8.85 0 00-8.83 8.87v19.63a8.85 8.85 0 008.83 8.87h40.82a8.85 8.85 0 018.66 7.13 118.16 118.16 0 0014.94 37.89 8.88 8.88 0 01-1.3 10.87l-28.54 28.66a8.89 8.89 0 000 12.54l13.82 13.88a8.81 8.81 0 0012.49 0l27.82-27.94a8.82 8.82 0 0111.16-1.08 117.27 117.27 0 0038.25 16.64 8.71 8.71 0 016.7 8.5V888a8.85 8.85 0 008.83 8.87h19.53a8.85 8.85 0 008.83-8.87v-38.2a8.92 8.92 0 017.15-8.73 117.19 117.19 0 0039.17-15.93 8.81 8.81 0 0111 1.2l26.83 27a8.8 8.8 0 0012.48 0L834 839.37a8.89 8.89 0 000-12.54L807.26 800a8.88 8.88 0 01-1.16-11.07 118.43 118.43 0 0016.16-39.49 8.63 8.63 0 018.42-6.92H869a8.85 8.85 0 008.82-8.87V714a8.85 8.85 0 00-8.82-8.85zM705.28 811.37c-48.33 0-87.51-39.35-87.51-87.89s39.18-87.89 87.51-87.89 87.51 39.35 87.51 87.89-39.18 87.89-87.51 87.89z"/><path d="M654.59 723.48a50.69 50.91 0 10101.38 0 50.69 50.91 0 10-101.38 0z"/></svg>