<?xml version="1.0" standalone="no"?><!DOCTYPE svg PUBLIC "-//W3C//DTD SVG 1.1//EN" "http://www.w3.org/Graphics/SVG/1.1/DTD/svg11.dtd"><svg t="1587113932938" class="icon" viewBox="0 0 1024 1024" version="1.1" xmlns="http://www.w3.org/2000/svg" p-id="5107" xmlns:xlink="http://www.w3.org/1999/xlink" width="128" height="128"><defs><style type="text/css"></style></defs><path d="M889.536 359.36c20.992 20.992 32.064 47.232 33.28 78.72v370.112c-1.152 31.488-12.224 57.728-33.28 78.72s-47.232 32.064-78.72 33.28H205.248c-31.488-1.152-57.728-12.224-78.72-33.28s-32.064-47.232-33.28-78.72V438.144c1.152-31.488 12.224-57.728 33.28-78.72s47.232-32.064 78.72-33.28h11.392c15.168-68.224 49.024-124.096 101.504-167.552 52.48-43.456 115.776-66.048 189.888-67.84 74.048 1.728 137.344 24.384 189.888 67.84 52.48 43.456 86.336 99.328 101.504 167.552h11.392c31.488 1.152 57.728 12.224 78.72 33.216z m-208.256-33.216c-11.648-36.736-33.408-66.368-65.216-88.832-31.808-22.464-67.84-33.664-108.032-33.664s-76.288 11.264-108.032 33.664c-31.808 22.464-53.504 52.032-65.216 88.832h346.496zM609.536 624.064c9.344-17.792 12.8-36.864 10.496-57.344-0.576-33.856-11.84-61.696-33.664-83.584s-49.728-33.088-83.584-33.664c-34.432 0.576-62.592 11.84-84.416 33.664s-33.088 49.728-33.664 83.584c0.576 22.72 6.72 42.432 18.368 59.072 11.648 16.64 26.24 30.784 43.776 42.432v77.888c0 16.896 4.928 30.464 14.848 40.704 9.92 10.24 23.616 15.296 41.152 15.296h10.496c17.472 0 31.232-5.12 41.152-15.296 9.92-10.176 14.848-23.744 14.848-40.704v-77.888c17.408-11.648 30.848-26.368 40.192-44.16z" p-id="5108"></path></svg>