<?xml version="1.0" standalone="no"?><!DOCTYPE svg PUBLIC "-//W3C//DTD SVG 1.1//EN" "http://www.w3.org/Graphics/SVG/1.1/DTD/svg11.dtd"><svg t="1588152186826" class="icon" viewBox="0 0 1024 1024" version="1.1" xmlns="http://www.w3.org/2000/svg" p-id="2832" xmlns:xlink="http://www.w3.org/1999/xlink" width="128" height="128"><defs><style type="text/css"></style></defs><path d="M332.974829 702.414049l-66.435122 13.986341L147.555902 897.123902l44.856196 44.956098 180.923317-119.18361 13.886439-66.235317 111.890731-112.789853-54.247024-54.346927zM589.42439 677.438439l335.172683-334.073756c46.654439-46.454634 46.654439-121.781073 0.099903-168.235707-46.554537-46.554537-121.880976-46.554537-168.33561 0L421.188683 509.102829 589.42439 677.438439zM861.858341 269.736585c8.691512-8.691512 22.478049-8.691512 31.069659 0 8.59161 8.491707 8.59161 22.478049-0.099902 30.869854L631.982829 561.651512c-8.59161 8.691512-22.577951 8.691512-31.069658 0-8.691512-8.59161-8.691512-22.577951 0-31.169561l260.94517-260.745366zM798.220488 205.898927c8.59161-8.59161 22.577951-8.59161 31.069658 0 8.691512 8.691512 8.691512 22.478049 0 31.169561L568.344976 497.913756c-8.691512 8.791415-22.577951 8.791415-31.069659 0-8.59161-8.59161-8.59161-22.577951 0-30.969756L798.220488 205.898927zM734.282927 589.42439L579.633951 744.073366c71.530146 77.524293 130.472585 141.961366 160.243512 171.63239 46.055024 46.154927 120.582244 46.454634 166.137757 0.79922 45.655415-45.655415 45.255805-120.082732-0.79922-166.237659L734.282927 589.42439z m122.88 278.228293c-18.481951 18.382049-48.35278 18.382049-66.834732 0-18.382049-18.382049-18.481951-48.35278 0-66.834732 18.382049-18.382049 48.35278-18.382049 66.834732 0 18.481951 18.581854 18.481951 48.452683 0 66.834732zM500.711024 291.715122c0-120.582244-97.604683-218.286829-218.087024-218.286829-29.571122 0-57.843512 5.894244-83.518439 16.583805l116.885854 116.885853c21.079415 21.079415 21.079415 55.645659 0 76.824976l-44.356683 44.556488c-21.079415 21.079415-55.645659 21.079415-76.824976 0L79.422439 212.892098c-9.490732 24.476098-14.985366 50.950244-14.985366 78.823024 0 120.382439 97.704585 218.087024 218.186927 218.087024S500.711024 412.097561 500.711024 291.715122z" p-id="2833"></path></svg>