<svg class="icon" viewBox="0 0 1077 1024" xmlns="http://www.w3.org/2000/svg" width="134.625" height="128"><defs><style/></defs><path d="M152.77 11.47l213.05 206.378-37.095 36.932 159.441 158.546-76.954 73.782L251.77 328.562l-38.477 36.931L.244 159.115 152.77 11.47z"/><path d="M1077.852 217.848H972.1l-42.707 42.463-31.644 31.4-33.027 32.54-87.855-23.266-23.428-87.204 33.027-32.54 33.027-32.538 42.789-42.951V.569h-8.135a244.042 244.042 0 00-178.964 68.332 234.768 234.768 0 00-68.739 147.646 250.712 250.712 0 0010.982 95.664v2.766a34.166 34.166 0 01-9.599 36.931c-17.896 16.27-525.097 497.52-525.097 497.52-42.626 35.55-38.477 102.498 0 142.114 39.86 38.234 105.752 40.674 142.927 0 0 0 478.323-504.353 498.985-524.852a33.678 33.678 0 0130.18-11.145c5.531 1.383 10.982 4.067 16.27 5.45a242.171 242.171 0 0087.936 9.6 237.29 237.29 0 00148.458-68.333 231.677 231.677 0 0068.739-177.662 14.805 14.805 0 001.627-6.752zm-898.888 725.78a33.352 33.352 0 01-48.076 0 32.539 32.539 0 010-47.831 33.352 33.352 0 0148.076 0 35.467 35.467 0 010 47.832z"/><path d="M981.618 785.083l-233.63-217.279S617.346 601.97 526.644 753.683c5.531 1.383 241.926 239.161 241.926 239.161a109.982 109.982 0 00152.608 0l60.441-58.733a102.823 102.823 0 000-149.028zm-127.471 166.68a29.366 29.366 0 01-38.477 0L620.436 761.819l-1.383-1.383a25.543 25.543 0 011.383-35.55 29.366 29.366 0 0138.477 0l196.535 189.947a28.797 28.797 0 01-1.301 36.932zm86.635-83.38a29.366 29.366 0 01-38.478 0L705.363 678.437l-1.383-1.383a25.543 25.543 0 011.383-35.55 29.366 29.366 0 0138.477 0l196.535 189.947a24.404 24.404 0 010 37.013z"/></svg>