<svg class="icon" viewBox="0 0 1024 1024" xmlns="http://www.w3.org/2000/svg" width="128" height="128"><defs><style/></defs><path d="M293.173 530.236c25.249 0 50.498-5.611 74.345-18.236 16.833-8.416 23.846-29.458 15.43-47.693-8.416-16.833-29.458-23.847-47.693-15.43-12.625 7.013-26.652 9.819-42.082 9.819-50.499 0-91.178-40.68-91.178-91.178s40.679-91.178 91.178-91.178c5.61 0 12.624 0 18.235 1.402 8.417 1.403 16.833 0 23.847-4.208-5.611 16.833-8.417 35.069-8.417 54.707 0 103.803 84.165 186.564 186.565 186.564S701.37 432.044 701.37 328.241c0-21.041-4.208-40.68-9.82-60.318 8.417 8.417 19.639 11.222 32.264 9.82 5.61-1.403 12.624-1.403 18.235-1.403 50.499 0 91.178 40.68 91.178 91.178s-40.68 91.178-91.178 91.178c-15.43 0-29.457-2.806-42.082-9.82-16.833-8.416-37.874-1.402-47.693 15.43-8.416 16.834-1.403 37.875 15.43 47.694 22.444 11.222 47.693 18.236 74.345 18.236 89.776 0 161.315-72.943 161.315-161.315S830.422 207.605 742.05 207.605c-11.222 0-22.444 1.403-32.263 2.806-16.833 2.805-28.054 18.236-28.054 35.068-30.86-60.317-93.984-102.4-166.927-102.4-68.734 0-129.052 37.874-161.315 93.984-2.805-12.625-12.624-22.444-26.652-25.25-11.222-2.805-21.04-2.805-32.263-2.805-89.775 0-161.315 72.943-161.315 161.315s70.137 159.913 159.913 159.913zm220.23-318.422c64.526 0 116.427 51.901 116.427 116.427s-51.9 116.427-116.427 116.427-116.428-51.9-116.428-116.427 51.902-116.427 116.428-116.427zM740.647 533.04c-11.222 0-22.444 0-33.666 1.403-19.639 2.805-32.263 19.638-30.86 39.277 0 1.402 0 2.805 1.402 4.208-47.693-28.055-103.802-44.888-164.12-44.888-57.513 0-110.817 15.43-157.107 40.68 2.805-19.639-11.222-36.472-30.86-39.277-9.82-1.403-21.041-1.403-32.263-1.403-152.899 0-276.34 123.441-276.34 274.937 0 19.638 15.43 35.069 35.068 35.069s35.069-15.43 35.069-35.069c0-113.622 92.58-206.203 206.203-206.203 7.013 0 12.624 0 19.638 1.403-74.345 58.915-122.038 150.093-122.038 252.493 0 19.639 15.43 35.069 35.068 35.069s35.069-15.43 35.069-35.069c0-140.274 113.622-253.896 253.895-253.896 140.274 0 253.896 113.622 253.896 253.896 0 19.639 15.43 35.069 35.069 35.069s35.068-15.43 35.068-35.069c0-102.4-47.693-193.578-122.038-252.493 8.416-1.403 16.833-1.403 25.25-1.403 113.621 0 206.202 92.581 206.202 206.203 0 19.638 15.43 35.069 35.069 35.069s35.068-15.43 35.068-35.069c-1.403-151.496-124.844-274.937-277.742-274.937z"/></svg>