<?xml version="1.0" standalone="no"?><!DOCTYPE svg PUBLIC "-//W3C//DTD SVG 1.1//EN" "http://www.w3.org/Graphics/SVG/1.1/DTD/svg11.dtd"><svg t="1589704523732" class="icon" viewBox="0 0 1024 1024" version="1.1" xmlns="http://www.w3.org/2000/svg" p-id="2600" xmlns:xlink="http://www.w3.org/1999/xlink" width="128" height="128"><defs><style type="text/css"></style></defs><path d="M910.2 0H113.8C51.2 0 0 51.2 0 113.8v796.4C0 972.8 51.2 1024 113.8 1024h796.4c62.6 0 113.8-51.3 113.8-113.8V113.8C1024 51.2 972.8 0 910.2 0M501.4 172c98.6-5.7 180.9 72.4 180.9 170.3 0 93.7-75.9 170.3-170.3 170.3-97.9 0-176.7-83-170.3-182.3C347.4 245.7 417 177 501.4 172m109.9 680.3H199.8c-15.6 0-28.3-12.8-28.3-28.4v-85.2c0-113.5 227-170.2 339.8-170.2 39.7 0 93 7.1 146.1 20.5-53.2 28.4-89.4 85.1-89.4 149.7 0 44.1 16.4 83.8 43.3 113.6m241.2-85.1h-85.2v85.2h-56.7v-85.2h-85.2v-56.7h85.2v-85.2h56.7v85.2h85.2v56.7z" fill="#1B8FFB" p-id="2601"></path></svg>