<?xml version="1.0" standalone="no"?><!DOCTYPE svg PUBLIC "-//W3C//DTD SVG 1.1//EN" "http://www.w3.org/Graphics/SVG/1.1/DTD/svg11.dtd"><svg t="1589705085262" class="icon" viewBox="0 0 1024 1024" version="1.1" xmlns="http://www.w3.org/2000/svg" p-id="9611" xmlns:xlink="http://www.w3.org/1999/xlink" width="128" height="128"><defs><style type="text/css"></style></defs><path d="M512 1024C230.4 1024 0 793.6 0 512S230.4 0 512 0s512 230.4 512 512-230.4 512-512 512z m56.888889-830.577778v-5.688889c0-22.755556-11.377778-45.511111-19.911111-39.822222-11.377778 5.688889-36.977778 5.688889-65.422222 0-62.577778-11.377778-96.711111-2.844444-113.777778 31.288889-2.844444 8.533333-11.377778 19.911111-17.066667 25.6-11.377778 17.066667-19.911111 54.044444-14.222222 82.488889 2.844444 11.377778 2.844444 22.755556 0 22.755555-8.533333 5.688889 5.688889 59.733333 14.222222 59.733334 2.844444 0 8.533333 8.533333 11.377778 19.911111 5.688889 11.377778 14.222222 28.444444 25.6 39.822222 14.222222 17.066667 17.066667 19.911111 14.222222 39.822222 0 14.222222-5.688889 22.755556-8.533333 28.444445-11.377778 11.377778-51.2 28.444444-113.777778 48.355555-34.133333 11.377778-65.422222 22.755556-71.111111 25.6-11.377778 8.533333-22.755556 34.133333-48.355556 110.933334-11.377778 36.977778-19.911111 68.266667-19.911111 68.266666h88.177778c2.844444-5.688889 2.844444-11.377778 5.688889-19.911111 22.755556-76.8 34.133333-102.4 48.355555-110.933333 5.688889-2.844444 36.977778-14.222222 71.111112-25.6 62.577778-19.911111 102.4-36.977778 113.777777-48.355556 5.688889-5.688889 8.533333-14.222222 8.533334-28.444444 2.844444-19.911111 2.844444-22.755556-14.222223-39.822222-8.533333-11.377778-19.911111-28.444444-25.6-39.822223-5.688889-11.377778-8.533333-19.911111-11.377777-19.911111-11.377778 0-25.6-56.888889-14.222223-59.733333 2.844444 0 0-11.377778 0-22.755556-5.688889-28.444444 2.844444-65.422222 14.222223-82.488888 5.688889-5.688889 17.066667-11.377778 19.911111-19.911112 22.755556-45.511111 45.511111-42.666667 110.933333-42.666666 5.688889 2.844444 8.533333 2.844444 11.377778 2.844444zM253.155556 822.044444s142.222222 2.844444 315.733333 2.844445 312.888889 0 312.888889-2.844445c0 0-5.688889-28.444444-14.222222-62.577777-28.444444-119.466667-22.755556-110.933333-116.622223-139.377778-102.4-31.288889-119.466667-42.666667-125.155555-79.644445-2.844444-19.911111-2.844444-22.755556 11.377778-36.977777 14.222222-17.066667 28.444444-42.666667 28.444444-51.2 0-2.844444 2.844444-8.533333 8.533333-8.533334 14.222222-5.688889 25.6-56.888889 17.066667-62.577777-2.844444 0-2.844444-17.066667 0-34.133334 2.844444-25.6 0-36.977778-2.844444-48.355555-2.844444-8.533333-5.688889-25.6-5.688889-34.133334 0-22.755556-11.377778-45.511111-19.911111-39.822222-11.377778 5.688889-36.977778 5.688889-65.422223 0-62.577778-11.377778-96.711111-2.844444-113.777777 31.288889-2.844444 8.533333-11.377778 19.911111-17.066667 25.6-11.377778 17.066667-19.911111 54.044444-14.222222 82.488889 2.844444 11.377778 2.844444 22.755556 0 22.755555-8.533333 5.688889 5.688889 59.733333 14.222222 59.733334 2.844444 0 8.533333 8.533333 11.377778 19.911111 5.688889 11.377778 14.222222 28.444444 25.6 39.822222 14.222222 17.066667 17.066667 19.911111 14.222222 39.822222 0 14.222222-5.688889 22.755556-8.533333 28.444445-11.377778 11.377778-51.2 28.444444-113.777778 48.355555-34.133333 11.377778-65.422222 22.755556-71.111111 25.6-14.222222 8.533333-25.6 34.133333-48.355556 110.933334-14.222222 31.288889-22.755556 62.577778-22.755555 62.577777z" fill="#00ADF7" p-id="9612"></path></svg>