<?xml version="1.0" standalone="no"?><!DOCTYPE svg PUBLIC "-//W3C//DTD SVG 1.1//EN" "http://www.w3.org/Graphics/SVG/1.1/DTD/svg11.dtd"><svg t="1587692265097" class="icon" viewBox="0 0 1024 1024" version="1.1" xmlns="http://www.w3.org/2000/svg" p-id="2623" xmlns:xlink="http://www.w3.org/1999/xlink" width="128" height="128"><defs><style type="text/css"></style></defs><path d="M662.62186 561.268406c68.523788-46.884193 113.609197-126.232559 113.609197-216.401253 0-146.068057-119.020424-265.088481-265.088481-265.088481-146.072307 0-263.289697 119.020424-263.289697 263.284384 0 90.169757 45.08541 169.51706 113.61026 216.401253C206.375662 620.778086 98.177692 770.454336 98.177692 945.37731l0 0 73.936077 0 0 0c0-173.118878 131.641661-317.383901 299.353562-337.221524 1.804096 0 46.885256-3.60713 84.755343 0l3.60713 0 0 0c164.104771 23.441566 290.33733 164.101583 290.33733 335.417427l0 0 75.739111 0 0 0C924.101085 770.454336 815.903115 620.778086 662.62186 561.268406L662.62186 561.268406zM511.142576 541.431845c-110.006317 0-198.367727-88.363535-198.367727-198.36879 0-110.002067 88.362473-198.363477 198.367727-198.363477 110.001004 0 198.363477 88.36141 198.363477 198.363477C709.506053 453.069373 621.14358 541.431845 511.142576 541.431845L511.142576 541.431845zM511.142576 541.431845" p-id="2624"></path></svg>