<?xml version="1.0" standalone="no"?><!DOCTYPE svg PUBLIC "-//W3C//DTD SVG 1.1//EN" "http://www.w3.org/Graphics/SVG/1.1/DTD/svg11.dtd"><svg t="1594739076589" class="icon" viewBox="0 0 1024 1024" version="1.1" xmlns="http://www.w3.org/2000/svg" p-id="5046" xmlns:xlink="http://www.w3.org/1999/xlink" width="128" height="128"><defs><style type="text/css"></style></defs><path d="M626.135505 236.916364c-4.049455 27.461818-32.674909 46.173091-63.906909 41.704727-31.650909-5.073455-53.527273-30.533818-49.617454-58.135273l25.274182-178.222545c4.049455-27.368727 32.814545-46.08 63.906909-41.611637 31.744 5.073455 53.527273 30.626909 49.524363 58.135273l-25.181091 178.082909z m130.97891 157.789091c-19.688727-25.693091-15.220364-60.416 10.612363-79.26691l162.909091-118.225454a58.507636 58.507636 0 0 1 81.082182 12.567273c19.549091 25.646545 15.918545 61.346909-10.053818 80.197818l-162.909091 118.132363c-25.739636 18.850909-61.952 12.148364-81.640727-13.40509zM320.378415 302.452364L197.638051 135.68c-18.478545-25.134545-13.637818-60.276364 9.634909-78.056727 24.762182-18.525091 58.507636-13.312 77.544727 12.055272l122.786909 166.912c18.618182 25.134545 14.196364 59.904-10.705454 78.848-23.365818 17.733818-57.995636 12.288-76.474182-12.986181zM115.11296 781.544727l164.119273-119.063272a58.740364 58.740364 0 0 1 80.989091 12.660363c19.549091 25.553455 15.313455 61.719273-9.960728 80.058182l-164.212363 118.970182c-24.762182 18.152727-60.974545 11.264-80.570182-14.289455-19.735273-25.553455-15.127273-60.369455 9.634909-78.336zM0.750778 417.373091c3.537455-28.997818 32.581818-48.546909 65.675637-44.450909l208.290909 31.650909c31.464727 5.12 53.992727 32.581818 50.967272 62.091636-5.259636 30.021818-34.164364 49.664-65.815272 44.497455l-208.244364-31.650909C18.531142 475.461818-3.903767 447.953455 0.750778 417.373091z" fill="#1b8ffb" p-id="5047"></path><path d="M842.711505 789.597091l131.258182 166.260364c5.538909 6.981818 2.466909 17.687273-6.516363 23.877818l-57.623273 39.842909c-8.936727 6.283636-20.805818 5.818182-26.344727-1.117091l-134.888728-170.728727c-61.533091 50.408727-135.819636 122.740364-135.819636 122.740363L512.145687 418.909091l512 314.740364s-112.965818 29.835636-181.434182 55.947636z" fill="#1b8ffb" p-id="5048"></path></svg>