<?xml version="1.0" standalone="no"?><!DOCTYPE svg PUBLIC "-//W3C//DTD SVG 1.1//EN" "http://www.w3.org/Graphics/SVG/1.1/DTD/svg11.dtd"><svg t="1594739340273" class="icon" viewBox="0 0 1024 1024" version="1.1" xmlns="http://www.w3.org/2000/svg" p-id="5244" xmlns:xlink="http://www.w3.org/1999/xlink" width="128" height="128"><defs><style type="text/css"></style></defs><path d="M596.878222 849.692444c185.457778-52.679111 300.657778-241.436444 258.958222-432.355555-37.319111-166.855111-187.619556-287.573333-357.774222-287.573333-26.339556 0-52.679111 3.299556-79.018666 8.760888a364.714667 364.714667 0 0 0-230.4 160.256 366.193778 366.193778 0 0 0-49.436445 276.536889c14.279111 64.739556 47.217778 124.017778 94.435556 173.397334l18.602666 19.740444 79.075556-124.017778 46.08 210.716445-210.773333 46.08 44.999111-70.200889-13.141334-12.060445a436.736 436.736 0 0 1-130.616889-228.295111 438.613333 438.613333 0 0 1 334.734223-523.434666 470.471111 470.471111 0 0 1 95.459555-9.898667c204.117333 0 385.194667 144.839111 429.112889 344.576a435.768889 435.768889 0 0 1-59.278222 331.434667 433.493333 433.493333 0 0 1-255.658667 187.676444l-15.36-71.338667z" fill="#1b8ffb" p-id="5245"></path><path d="M435.541333 390.940444a101.831111 101.831111 0 0 1 144.839111-3.299555c19.740444 18.659556 30.72 43.918222 31.857778 71.338667 0 14.279111-2.275556 29.639111-8.817778 42.837333L734.037333 625.777778a35.726222 35.726222 0 0 1 1.080889 50.460444c-13.198222 14.222222-36.238222 14.222222-50.460444 1.137778l-130.616889-124.017778a112.184889 112.184889 0 0 1-42.780445 10.922667 101.831111 101.831111 0 0 1-73.557333-28.501333 102.513778 102.513778 0 0 1-31.857778-71.338667c0-28.558222 9.898667-53.76 29.696-73.557333z" fill="#1b8ffb" p-id="5246"></path></svg>