<svg class="icon" viewBox="0 0 1024 1024" xmlns="http://www.w3.org/2000/svg" width="128" height="128"><defs><style/></defs><path d="M596.878 849.692c185.458-52.679 300.658-241.436 258.958-432.355-37.319-166.855-187.62-287.573-357.774-287.573-26.34 0-52.679 3.3-79.018 8.76a364.715 364.715 0 00-230.4 160.256 366.194 366.194 0 00-49.437 276.537c14.28 64.74 47.218 124.018 94.436 173.398l18.602 19.74 79.076-124.018 46.08 210.717-210.773 46.08 44.999-70.201-13.142-12.06A436.736 436.736 0 0167.868 590.676 438.613 438.613 0 01402.603 67.243a470.471 470.471 0 0195.46-9.899c204.117 0 385.194 144.84 429.112 344.576a435.769 435.769 0 01-59.278 331.435A433.493 433.493 0 01612.238 921.03l-15.36-71.339z"/><path d="M435.541 390.94a101.831 101.831 0 01144.84-3.3c19.74 18.66 30.72 43.92 31.857 71.34 0 14.279-2.275 29.639-8.818 42.837l130.617 123.96a35.726 35.726 0 011.081 50.461c-13.198 14.222-36.238 14.222-50.46 1.138L554.04 553.358a112.185 112.185 0 01-42.78 10.923 101.831 101.831 0 01-73.558-28.501 102.514 102.514 0 01-31.858-71.34c0-28.557 9.899-53.76 29.696-73.556z"/></svg>